<?xml version="1.0" encoding="UTF-8" standalone="no"?>
<!DOCTYPE svg PUBLIC "-//W3C//DTD SVG 1.1//EN"
 "http://www.w3.org/Graphics/SVG/1.1/DTD/svg11.dtd">
<!-- Generated by graphviz version 2.43.0 (0)
 -->
<!-- Title: RailArch Pages: 1 -->
<svg width="941pt" height="419pt"
 viewBox="0.00 0.00 941.00 419.00" xmlns="http://www.w3.org/2000/svg" xmlns:xlink="http://www.w3.org/1999/xlink">
<g id="graph0" class="graph" transform="scale(1 1) rotate(0) translate(4 415)">
<title>RailArch</title>
<polygon fill="white" stroke="transparent" points="-4,4 -4,-415 937,-415 937,4 -4,4"/>
<g id="clust1" class="cluster">
<title>cluster_clients</title>
<path fill="none" stroke="#9da3af" d="M20,-131C20,-131 111,-131 111,-131 117,-131 123,-137 123,-143 123,-143 123,-273 123,-273 123,-279 117,-285 111,-285 111,-285 20,-285 20,-285 14,-285 8,-279 8,-273 8,-273 8,-143 8,-143 8,-137 14,-131 20,-131"/>
<text text-anchor="middle" x="65.5" y="-269.8" font-family="Times,serif" font-size="14.00">클라이언트</text>
</g>
<g id="clust2" class="cluster">
<title>cluster_api</title>
<path fill="none" stroke="#9da3af" d="M184,-131C184,-131 566,-131 566,-131 572,-131 578,-137 578,-143 578,-143 578,-273 578,-273 578,-279 572,-285 566,-285 566,-285 184,-285 184,-285 178,-285 172,-279 172,-273 172,-273 172,-143 172,-143 172,-137 178,-131 184,-131"/>
<text text-anchor="middle" x="375" y="-269.8" font-family="Times,serif" font-size="14.00">API 서버</text>
</g>
<g id="clust3" class="cluster">
<title>cluster_service</title>
<path fill="none" stroke="#9da3af" d="M639,-91C639,-91 727,-91 727,-91 733,-91 739,-97 739,-103 739,-103 739,-312 739,-312 739,-318 733,-324 727,-324 727,-324 639,-324 639,-324 633,-324 627,-318 627,-312 627,-312 627,-103 627,-103 627,-97 633,-91 639,-91"/>
<text text-anchor="middle" x="683" y="-308.8" font-family="Times,serif" font-size="14.00">서비스 계층</text>
</g>
<g id="clust4" class="cluster">
<title>cluster_data</title>
<path fill="none" stroke="#9da3af" d="M808.5,-170C808.5,-170 904.5,-170 904.5,-170 910.5,-170 916.5,-176 916.5,-182 916.5,-182 916.5,-391 916.5,-391 916.5,-397 910.5,-403 904.5,-403 904.5,-403 808.5,-403 808.5,-403 802.5,-403 796.5,-397 796.5,-391 796.5,-391 796.5,-182 796.5,-182 796.5,-176 802.5,-170 808.5,-170"/>
<text text-anchor="middle" x="856.5" y="-387.8" font-family="Times,serif" font-size="14.00">데이터 계층</text>
</g>
<g id="clust5" class="cluster">
<title>cluster_external</title>
<path fill="none" stroke="#9da3af" stroke-dasharray="5,2" d="M800,-8C800,-8 913,-8 913,-8 919,-8 925,-14 925,-20 925,-20 925,-150 925,-150 925,-156 919,-162 913,-162 913,-162 800,-162 800,-162 794,-162 788,-156 788,-150 788,-150 788,-20 788,-20 788,-14 794,-8 800,-8"/>
<text text-anchor="middle" x="856.5" y="-146.8" font-family="Times,serif" font-size="14.00">외부 API</text>
</g>
<!-- Flutter -->
<g id="node1" class="node">
<title>Flutter</title>
<path fill="#eef2ff" stroke="black" d="M103,-254C103,-254 28,-254 28,-254 22,-254 16,-248 16,-242 16,-242 16,-230 16,-230 16,-224 22,-218 28,-218 28,-218 103,-218 103,-218 109,-218 115,-224 115,-230 115,-230 115,-242 115,-242 115,-248 109,-254 103,-254"/>
<text text-anchor="middle" x="65.5" y="-232.3" font-family="Times,serif" font-size="14.00">Flutter App</text>
</g>
<!-- REST -->
<g id="node3" class="node">
<title>REST</title>
<polygon fill="#ecfeff" stroke="black" points="277.5,-175 191.5,-175 191.5,-171 187.5,-171 187.5,-167 191.5,-167 191.5,-147 187.5,-147 187.5,-143 191.5,-143 191.5,-139 277.5,-139 277.5,-175"/>
<polyline fill="none" stroke="black" points="191.5,-171 195.5,-171 195.5,-167 191.5,-167 "/>
<polyline fill="none" stroke="black" points="191.5,-147 195.5,-147 195.5,-143 191.5,-143 "/>
<text text-anchor="middle" x="234.5" y="-153.3" font-family="Times,serif" font-size="14.00">REST API</text>
</g>
<!-- Flutter&#45;&gt;REST -->
<g id="edge1" class="edge">
<title>Flutter&#45;&gt;REST</title>
<path fill="none" stroke="black" d="M115.39,-230C132.77,-230 148,-230 148,-230 148,-230 148,-163 148,-163 148,-163 181.25,-163 181.25,-163"/>
<polygon fill="black" stroke="black" points="181.25,-166.5 191.25,-163 181.25,-159.5 181.25,-166.5"/>
</g>
<!-- GRPC -->
<g id="node4" class="node">
<title>GRPC</title>
<polygon fill="#ecfeff" stroke="black" points="289,-254 180,-254 180,-250 176,-250 176,-246 180,-246 180,-226 176,-226 176,-222 180,-222 180,-218 289,-218 289,-254"/>
<polyline fill="none" stroke="black" points="180,-250 184,-250 184,-246 180,-246 "/>
<polyline fill="none" stroke="black" points="180,-226 184,-226 184,-222 180,-222 "/>
<text text-anchor="middle" x="234.5" y="-232.3" font-family="Times,serif" font-size="14.00">gRPC Server</text>
</g>
<!-- Flutter&#45;&gt;GRPC -->
<g id="edge2" class="edge">
<title>Flutter&#45;&gt;GRPC</title>
<path fill="none" stroke="black" d="M115.29,-242C115.29,-242 169.75,-242 169.75,-242"/>
<polygon fill="black" stroke="black" points="169.75,-245.5 179.75,-242 169.75,-238.5 169.75,-245.5"/>
</g>
<!-- Web -->
<g id="node2" class="node">
<title>Web</title>
<path fill="#eef2ff" stroke="black" d="M101,-175C101,-175 30,-175 30,-175 24,-175 18,-169 18,-163 18,-163 18,-151 18,-151 18,-145 24,-139 30,-139 30,-139 101,-139 101,-139 107,-139 113,-145 113,-151 113,-151 113,-163 113,-163 113,-169 107,-175 101,-175"/>
<text text-anchor="middle" x="65.5" y="-153.3" font-family="Times,serif" font-size="14.00">Web Client</text>
</g>
<!-- Web&#45;&gt;REST -->
<g id="edge3" class="edge">
<title>Web&#45;&gt;REST</title>
<path fill="none" stroke="black" d="M113.03,-151C113.03,-151 181.37,-151 181.37,-151"/>
<polygon fill="black" stroke="black" points="181.37,-154.5 191.37,-151 181.37,-147.5 181.37,-154.5"/>
</g>
<!-- Auth -->
<g id="node5" class="node">
<title>Auth</title>
<path fill="#fef9c3" stroke="black" d="M438,-214C438,-214 366,-214 366,-214 360,-214 354,-208 354,-202 354,-202 354,-190 354,-190 354,-184 360,-178 366,-178 366,-178 438,-178 438,-178 444,-178 450,-184 450,-190 450,-190 450,-202 450,-202 450,-208 444,-214 438,-214"/>
<text text-anchor="middle" x="402" y="-192.3" font-family="Times,serif" font-size="14.00">인증 미들웨어</text>
</g>
<!-- REST&#45;&gt;Auth -->
<g id="edge4" class="edge">
<title>REST&#45;&gt;Auth</title>
<path fill="none" stroke="black" d="M235,-175.04C235,-182.75 235,-190 235,-190 235,-190 343.7,-190 343.7,-190"/>
<polygon fill="black" stroke="black" points="343.7,-193.5 353.7,-190 343.7,-186.5 343.7,-193.5"/>
</g>
<!-- GRPC&#45;&gt;Auth -->
<g id="edge5" class="edge">
<title>GRPC&#45;&gt;Auth</title>
<path fill="none" stroke="black" d="M284,-217.81C284,-209.72 284,-202 284,-202 284,-202 343.66,-202 343.66,-202"/>
<polygon fill="black" stroke="black" points="343.66,-205.5 353.66,-202 343.66,-198.5 343.66,-205.5"/>
</g>
<!-- Router -->
<g id="node6" class="node">
<title>Router</title>
<path fill="#f5f5f5" stroke="black" d="M558,-214C558,-214 527,-214 527,-214 521,-214 515,-208 515,-202 515,-202 515,-190 515,-190 515,-184 521,-178 527,-178 527,-178 558,-178 558,-178 564,-178 570,-184 570,-190 570,-190 570,-202 570,-202 570,-208 564,-214 558,-214"/>
<text text-anchor="middle" x="542.5" y="-192.3" font-family="Times,serif" font-size="14.00">라우터</text>
</g>
<!-- Auth&#45;&gt;Router -->
<g id="edge6" class="edge">
<title>Auth&#45;&gt;Router</title>
<path fill="none" stroke="black" d="M450.35,-196C450.35,-196 504.97,-196 504.97,-196"/>
<polygon fill="black" stroke="black" points="504.97,-199.5 514.97,-196 504.97,-192.5 504.97,-199.5"/>
</g>
<!-- TrainService -->
<g id="node7" class="node">
<title>TrainService</title>
<path fill="#dcfce7" stroke="black" d="M712.5,-135C712.5,-135 653.5,-135 653.5,-135 647.5,-135 641.5,-129 641.5,-123 641.5,-123 641.5,-111 641.5,-111 641.5,-105 647.5,-99 653.5,-99 653.5,-99 712.5,-99 712.5,-99 718.5,-99 724.5,-105 724.5,-111 724.5,-111 724.5,-123 724.5,-123 724.5,-129 718.5,-135 712.5,-135"/>
<text text-anchor="middle" x="683" y="-113.3" font-family="Times,serif" font-size="14.00">열차 서비스</text>
</g>
<!-- Router&#45;&gt;TrainService -->
<g id="edge7" class="edge">
<title>Router&#45;&gt;TrainService</title>
<path fill="none" stroke="black" d="M543,-177.68C543,-154.34 543,-117 543,-117 543,-117 631.37,-117 631.37,-117"/>
<polygon fill="black" stroke="black" points="631.37,-120.5 641.37,-117 631.37,-113.5 631.37,-120.5"/>
</g>
<!-- HenseiService -->
<g id="node8" class="node">
<title>HenseiService</title>
<path fill="#dcfce7" stroke="black" d="M712.5,-214C712.5,-214 653.5,-214 653.5,-214 647.5,-214 641.5,-208 641.5,-202 641.5,-202 641.5,-190 641.5,-190 641.5,-184 647.5,-178 653.5,-178 653.5,-178 712.5,-178 712.5,-178 718.5,-178 724.5,-184 724.5,-190 724.5,-190 724.5,-202 724.5,-202 724.5,-208 718.5,-214 712.5,-214"/>
<text text-anchor="middle" x="683" y="-192.3" font-family="Times,serif" font-size="14.00">편성 서비스</text>
</g>
<!-- Router&#45;&gt;HenseiService -->
<g id="edge8" class="edge">
<title>Router&#45;&gt;HenseiService</title>
<path fill="none" stroke="black" d="M570.26,-196C570.26,-196 631.44,-196 631.44,-196"/>
<polygon fill="black" stroke="black" points="631.44,-199.5 641.44,-196 631.44,-192.5 631.44,-199.5"/>
</g>
<!-- ScheduleService -->
<g id="node9" class="node">
<title>ScheduleService</title>
<path fill="#dcfce7" stroke="black" d="M719,-293C719,-293 647,-293 647,-293 641,-293 635,-287 635,-281 635,-281 635,-269 635,-269 635,-263 641,-257 647,-257 647,-257 719,-257 719,-257 725,-257 731,-263 731,-269 731,-269 731,-281 731,-281 731,-287 725,-293 719,-293"/>
<text text-anchor="middle" x="683" y="-271.3" font-family="Times,serif" font-size="14.00">시간표 서비스</text>
</g>
<!-- Router&#45;&gt;ScheduleService -->
<g id="edge9" class="edge">
<title>Router&#45;&gt;ScheduleService</title>
<path fill="none" stroke="black" d="M543,-214.32C543,-237.66 543,-275 543,-275 543,-275 624.82,-275 624.82,-275"/>
<polygon fill="black" stroke="black" points="624.82,-278.5 634.82,-275 624.82,-271.5 624.82,-278.5"/>
</g>
<!-- Redis -->
<g id="node10" class="node">
<title>Redis</title>
<path fill="#e0f2fe" stroke="black" d="M908.5,-289.73C908.5,-291.53 885.19,-293 856.5,-293 827.81,-293 804.5,-291.53 804.5,-289.73 804.5,-289.73 804.5,-260.27 804.5,-260.27 804.5,-258.47 827.81,-257 856.5,-257 885.19,-257 908.5,-258.47 908.5,-260.27 908.5,-260.27 908.5,-289.73 908.5,-289.73"/>
<path fill="none" stroke="black" d="M908.5,-289.73C908.5,-287.92 885.19,-286.45 856.5,-286.45 827.81,-286.45 804.5,-287.92 804.5,-289.73"/>
<text text-anchor="middle" x="856.5" y="-271.3" font-family="Times,serif" font-size="14.00">Redis Cache</text>
</g>
<!-- TrainService&#45;&gt;Redis -->
<g id="edge10" class="edge">
<title>TrainService&#45;&gt;Redis</title>
<path fill="none" stroke="black" d="M724.92,-120.33C744.69,-120.33 764,-120.33 764,-120.33 764,-120.33 764,-269 764,-269 764,-269 794.3,-269 794.3,-269"/>
<polygon fill="black" stroke="black" points="794.3,-272.5 804.3,-269 794.3,-265.5 794.3,-272.5"/>
</g>
<!-- KorailAPI -->
<g id="node13" class="node">
<title>KorailAPI</title>
<path fill="none" stroke="black" d="M905,-131C905,-131 808,-131 808,-131 802,-131 796,-125 796,-119 796,-119 796,-107 796,-107 796,-101 802,-95 808,-95 808,-95 905,-95 905,-95 911,-95 917,-101 917,-107 917,-107 917,-119 917,-119 917,-125 911,-131 905,-131"/>
<text text-anchor="middle" x="856.5" y="-109.3" font-family="Times,serif" font-size="14.00">한국철도공사 API</text>
</g>
<!-- TrainService&#45;&gt;KorailAPI -->
<g id="edge11" class="edge">
<title>TrainService&#45;&gt;KorailAPI</title>
<path fill="none" stroke="black" d="M724.56,-109.67C724.56,-109.67 785.91,-109.67 785.91,-109.67"/>
<polygon fill="black" stroke="black" points="785.91,-113.17 795.91,-109.67 785.91,-106.17 785.91,-113.17"/>
</g>
<!-- SeoulMetroAPI -->
<g id="node14" class="node">
<title>SeoulMetroAPI</title>
<path fill="none" stroke="black" d="M905,-52C905,-52 808,-52 808,-52 802,-52 796,-46 796,-40 796,-40 796,-28 796,-28 796,-22 802,-16 808,-16 808,-16 905,-16 905,-16 911,-16 917,-22 917,-28 917,-28 917,-40 917,-40 917,-46 911,-52 905,-52"/>
<text text-anchor="middle" x="856.5" y="-30.3" font-family="Times,serif" font-size="14.00">서울교통공사 API</text>
</g>
<!-- TrainService&#45;&gt;SeoulMetroAPI -->
<g id="edge12" class="edge">
<title>TrainService&#45;&gt;SeoulMetroAPI</title>
<path fill="none" stroke="black" d="M683,-98.99C683,-74.58 683,-34 683,-34 683,-34 785.82,-34 785.82,-34"/>
<polygon fill="black" stroke="black" points="785.82,-37.5 795.82,-34 785.82,-30.5 785.82,-37.5"/>
</g>
<!-- HenseiService&#45;&gt;Redis -->
<g id="edge13" class="edge">
<title>HenseiService&#45;&gt;Redis</title>
<path fill="none" stroke="black" d="M724.61,-202C761.31,-202 809,-202 809,-202 809,-202 809,-248.07 809,-248.07"/>
<polygon fill="black" stroke="black" points="805.5,-248.07 809,-258.07 812.5,-248.07 805.5,-248.07"/>
</g>
<!-- MongoDB -->
<g id="node11" class="node">
<title>MongoDB</title>
<path fill="#e0f2fe" stroke="black" d="M900,-210.73C900,-212.53 880.5,-214 856.5,-214 832.5,-214 813,-212.53 813,-210.73 813,-210.73 813,-181.27 813,-181.27 813,-179.47 832.5,-178 856.5,-178 880.5,-178 900,-179.47 900,-181.27 900,-181.27 900,-210.73 900,-210.73"/>
<path fill="none" stroke="black" d="M900,-210.73C900,-208.92 880.5,-207.45 856.5,-207.45 832.5,-207.45 813,-208.92 813,-210.73"/>
<text text-anchor="middle" x="856.5" y="-192.3" font-family="Times,serif" font-size="14.00">MongoDB</text>
</g>
<!-- HenseiService&#45;&gt;MongoDB -->
<g id="edge14" class="edge">
<title>HenseiService&#45;&gt;MongoDB</title>
<path fill="none" stroke="black" d="M724.56,-190C724.56,-190 802.86,-190 802.86,-190"/>
<polygon fill="black" stroke="black" points="802.86,-193.5 812.86,-190 802.86,-186.5 802.86,-193.5"/>
</g>
<!-- ScheduleService&#45;&gt;Redis -->
<g id="edge16" class="edge">
<title>ScheduleService&#45;&gt;Redis</title>
<path fill="none" stroke="black" d="M731.33,-281C731.33,-281 794.48,-281 794.48,-281"/>
<polygon fill="black" stroke="black" points="794.48,-284.5 804.48,-281 794.48,-277.5 794.48,-284.5"/>
</g>
<!-- FileSystem -->
<g id="node12" class="node">
<title>FileSystem</title>
<polygon fill="#e0f2fe" stroke="black" points="898,-372 895,-376 874,-376 871,-372 815,-372 815,-336 898,-336 898,-372"/>
<text text-anchor="middle" x="856.5" y="-350.3" font-family="Times,serif" font-size="14.00">파일 시스템</text>
</g>
<!-- ScheduleService&#45;&gt;FileSystem -->
<g id="edge15" class="edge">
<title>ScheduleService&#45;&gt;FileSystem</title>
<path fill="none" stroke="black" d="M683,-293.32C683,-316.66 683,-354 683,-354 683,-354 804.94,-354 804.94,-354"/>
<polygon fill="black" stroke="black" points="804.94,-357.5 814.94,-354 804.94,-350.5 804.94,-357.5"/>
</g>
</g>
</svg>
