<svg xmlns="http://www.w3.org/2000/svg" viewBox="0 0 1100 780" font-family="'Inter','Pretendard',system-ui,sans-serif">
  <defs>
    <linearGradient id="bgGrad" x1="0%" y1="0%" x2="100%" y2="100%">
      <stop offset="0%" stop-color="#0f172a"/>
      <stop offset="100%" stop-color="#1e293b"/>
    </linearGradient>
    <linearGradient id="moduleGrad" x1="0%" y1="0%" x2="0%" y2="100%">
      <stop offset="0%" stop-color="#1e293b"/>
      <stop offset="100%" stop-color="#0f172a"/>
    </linearGradient>
    <filter id="glow">
      <feGaussianBlur stdDeviation="3" result="blur"/>
      <feMerge><feMergeNode in="blur"/><feMergeNode in="SourceGraphic"/></feMerge>
    </filter>
    <filter id="shadow">
      <feDropShadow dx="0" dy="2" stdDeviation="4" flood-color="#000" flood-opacity="0.3"/>
    </filter>
  </defs>

  <!-- Background -->
  <rect width="1100" height="780" fill="url(#bgGrad)" rx="16"/>

  <!-- Title -->
  <text x="550" y="42" text-anchor="middle" fill="#f8fafc" font-size="20" font-weight="700" letter-spacing="1">Girls Band Tabi — System Architecture</text>
  <text x="550" y="64" text-anchor="middle" fill="#64748b" font-size="12">Spring Modulith Event-Driven · Kotlin · Spring Boot 3 · Java 21</text>

  <!-- ===== CLIENT LAYER ===== -->
  <rect x="30" y="88" width="1040" height="60" rx="10" fill="#1e293b" stroke="#334155" stroke-width="1" filter="url(#shadow)"/>
  <text x="550" y="108" text-anchor="middle" fill="#94a3b8" font-size="10" font-weight="600" letter-spacing="2">CLIENT LAYER</text>
  <rect x="80" y="118" width="120" height="22" rx="6" fill="#0ea5e9" fill-opacity="0.15" stroke="#0ea5e9" stroke-opacity="0.3"/>
  <text x="140" y="133" text-anchor="middle" fill="#7dd3fc" font-size="10" font-weight="500">Flutter (Android)</text>
  <rect x="220" y="118" width="120" height="22" rx="6" fill="#0ea5e9" fill-opacity="0.15" stroke="#0ea5e9" stroke-opacity="0.3"/>
  <text x="280" y="133" text-anchor="middle" fill="#7dd3fc" font-size="10" font-weight="500">Flutter (iOS)</text>
  <rect x="360" y="118" width="120" height="22" rx="6" fill="#a855f7" fill-opacity="0.15" stroke="#a855f7" stroke-opacity="0.3"/>
  <text x="420" y="133" text-anchor="middle" fill="#c084fc" font-size="10" font-weight="500">Admin Web</text>
  <rect x="500" y="118" width="140" height="22" rx="6" fill="#f97316" fill-opacity="0.15" stroke="#f97316" stroke-opacity="0.3"/>
  <text x="570" y="133" text-anchor="middle" fill="#fdba74" font-size="10" font-weight="500">OpenAPI / Swagger</text>
  <rect x="660" y="118" width="160" height="22" rx="6" fill="#22c55e" fill-opacity="0.15" stroke="#22c55e" stroke-opacity="0.3"/>
  <text x="740" y="133" text-anchor="middle" fill="#86efac" font-size="10" font-weight="500">OAuth2 (Google / Apple)</text>
  <rect x="840" y="118" width="180" height="22" rx="6" fill="#eab308" fill-opacity="0.15" stroke="#eab308" stroke-opacity="0.3"/>
  <text x="930" y="133" text-anchor="middle" fill="#fde047" font-size="10" font-weight="500">Prometheus + Actuator</text>

  <!-- Arrow down -->
  <line x1="550" y1="148" x2="550" y2="168" stroke="#475569" stroke-width="1.5" marker-end="url(#arrowDown)"/>
  <defs><marker id="arrowDown" markerWidth="8" markerHeight="6" refX="4" refY="3" orient="auto"><path d="M0,0 L8,3 L0,6" fill="#475569"/></marker></defs>

  <!-- ===== GATEWAY / SECURITY LAYER ===== -->
  <rect x="30" y="168" width="1040" height="56" rx="10" fill="#1e293b" stroke="#334155" stroke-width="1" filter="url(#shadow)"/>
  <text x="550" y="188" text-anchor="middle" fill="#94a3b8" font-size="10" font-weight="600" letter-spacing="2">GATEWAY · SECURITY</text>
  <rect x="60" y="198" width="145" height="20" rx="5" fill="#ef4444" fill-opacity="0.12" stroke="#ef4444" stroke-opacity="0.3"/>
  <text x="132" y="212" text-anchor="middle" fill="#fca5a5" font-size="9.5">Spring Security</text>
  <rect x="215" y="198" width="135" height="20" rx="5" fill="#ef4444" fill-opacity="0.12" stroke="#ef4444" stroke-opacity="0.3"/>
  <text x="282" y="212" text-anchor="middle" fill="#fca5a5" font-size="9.5">JWT + OAuth2</text>
  <rect x="360" y="198" width="130" height="20" rx="5" fill="#ef4444" fill-opacity="0.12" stroke="#ef4444" stroke-opacity="0.3"/>
  <text x="425" y="212" text-anchor="middle" fill="#fca5a5" font-size="9.5">RBAC (Project)</text>
  <rect x="500" y="198" width="140" height="20" rx="5" fill="#f97316" fill-opacity="0.12" stroke="#f97316" stroke-opacity="0.3"/>
  <text x="570" y="212" text-anchor="middle" fill="#fdba74" font-size="9.5">Redis Rate Limit</text>
  <rect x="650" y="198" width="140" height="20" rx="5" fill="#f97316" fill-opacity="0.12" stroke="#f97316" stroke-opacity="0.3"/>
  <text x="720" y="212" text-anchor="middle" fill="#fdba74" font-size="9.5">Resilience4j CB</text>
  <rect x="800" y="198" width="140" height="20" rx="5" fill="#f97316" fill-opacity="0.12" stroke="#f97316" stroke-opacity="0.3"/>
  <text x="870" y="212" text-anchor="middle" fill="#fdba74" font-size="9.5">Anti-tamper</text>
  <rect x="950" y="198" width="100" height="20" rx="5" fill="#22c55e" fill-opacity="0.12" stroke="#22c55e" stroke-opacity="0.3"/>
  <text x="1000" y="212" text-anchor="middle" fill="#86efac" font-size="9.5">CORS</text>

  <!-- Arrow down -->
  <line x1="550" y1="224" x2="550" y2="248" stroke="#475569" stroke-width="1.5" marker-end="url(#arrowDown)"/>

  <!-- ===== SPRING MODULITH EVENT BUS ===== -->
  <rect x="30" y="248" width="1040" height="34" rx="8" fill="#7c3aed" fill-opacity="0.1" stroke="#7c3aed" stroke-opacity="0.35" stroke-dasharray="6,3"/>
  <text x="550" y="270" text-anchor="middle" fill="#a78bfa" font-size="11" font-weight="600" letter-spacing="1.5" filter="url(#glow)">SPRING MODULITH EVENT BUS</text>

  <!-- ===== 5 DOMAIN MODULES ===== -->
  <!-- identity -->
  <rect x="30" y="296" width="196" height="220" rx="10" fill="url(#moduleGrad)" stroke="#3b82f6" stroke-opacity="0.4" stroke-width="1.2" filter="url(#shadow)"/>
  <rect x="30" y="296" width="196" height="30" rx="10" fill="#3b82f6" fill-opacity="0.15"/>
  <text x="128" y="316" text-anchor="middle" fill="#93c5fd" font-size="12" font-weight="700">identity</text>
  <text x="48" y="342" fill="#cbd5e1" font-size="9">AuthController</text>
  <text x="48" y="358" fill="#cbd5e1" font-size="9">UserController</text>
  <text x="48" y="374" fill="#cbd5e1" font-size="9">VerificationController</text>
  <text x="48" y="390" fill="#cbd5e1" font-size="9">NotificationController</text>
  <text x="48" y="406" fill="#94a3b8" font-size="9">AdminDashboard / Audit</text>
  <text x="48" y="422" fill="#94a3b8" font-size="9">AdminUser / Token / Block</text>
  <text x="48" y="438" fill="#94a3b8" font-size="9">ProjectRoleController</text>
  <rect x="42" y="452" width="170" height="16" rx="4" fill="#3b82f6" fill-opacity="0.1"/>
  <text x="127" y="464" text-anchor="middle" fill="#60a5fa" font-size="8.5">OAuth2 · Email · RBAC</text>
  <rect x="42" y="472" width="170" height="16" rx="4" fill="#3b82f6" fill-opacity="0.1"/>
  <text x="127" y="484" text-anchor="middle" fill="#60a5fa" font-size="8.5">User / Admin entities</text>
  <text x="128" y="508" text-anchor="middle" fill="#475569" font-size="9" font-weight="600">15 Controllers</text>

  <!-- place -->
  <rect x="240" y="296" width="196" height="220" rx="10" fill="url(#moduleGrad)" stroke="#22c55e" stroke-opacity="0.4" stroke-width="1.2" filter="url(#shadow)"/>
  <rect x="240" y="296" width="196" height="30" rx="10" fill="#22c55e" fill-opacity="0.15"/>
  <text x="338" y="316" text-anchor="middle" fill="#86efac" font-size="12" font-weight="700">place</text>
  <text x="258" y="342" fill="#cbd5e1" font-size="9">PlaceController</text>
  <text x="258" y="358" fill="#cbd5e1" font-size="9">PlacePhotos / Comments</text>
  <text x="258" y="374" fill="#cbd5e1" font-size="9">PlaceGuides / Favorites</text>
  <text x="258" y="390" fill="#cbd5e1" font-size="9">UnifiedSearch / Region</text>
  <text x="258" y="406" fill="#94a3b8" font-size="9">RegionNavigation / Filter</text>
  <text x="258" y="422" fill="#94a3b8" font-size="9">Visit / Achievement</text>
  <text x="258" y="438" fill="#94a3b8" font-size="9">Recommendation / Rating</text>
  <rect x="252" y="452" width="170" height="16" rx="4" fill="#22c55e" fill-opacity="0.1"/>
  <text x="337" y="464" text-anchor="middle" fill="#4ade80" font-size="8.5">Hibernate Spatial · JTS</text>
  <rect x="252" y="472" width="170" height="16" rx="4" fill="#22c55e" fill-opacity="0.1"/>
  <text x="337" y="484" text-anchor="middle" fill="#4ade80" font-size="8.5">12 Entities · GIST Index</text>
  <text x="338" y="508" text-anchor="middle" fill="#475569" font-size="9" font-weight="600">9 Controllers</text>

  <!-- event -->
  <rect x="450" y="296" width="196" height="220" rx="10" fill="url(#moduleGrad)" stroke="#eab308" stroke-opacity="0.4" stroke-width="1.2" filter="url(#shadow)"/>
  <rect x="450" y="296" width="196" height="30" rx="10" fill="#eab308" fill-opacity="0.15"/>
  <text x="548" y="316" text-anchor="middle" fill="#fde047" font-size="12" font-weight="700">event</text>
  <text x="468" y="342" fill="#cbd5e1" font-size="9">LiveEventController</text>
  <text x="468" y="358" fill="#cbd5e1" font-size="9">AdminEventController</text>
  <text x="468" y="374" fill="#cbd5e1" font-size="9">AdminLiveEventController</text>
  <text x="468" y="406" fill="#94a3b8" font-size="9">라이브 이벤트 관리</text>
  <text x="468" y="422" fill="#94a3b8" font-size="9">일정 · 알림 · 참여</text>
  <rect x="462" y="452" width="170" height="16" rx="4" fill="#eab308" fill-opacity="0.1"/>
  <text x="547" y="464" text-anchor="middle" fill="#facc15" font-size="8.5">Event Scheduling</text>
  <rect x="462" y="472" width="170" height="16" rx="4" fill="#eab308" fill-opacity="0.1"/>
  <text x="547" y="484" text-anchor="middle" fill="#facc15" font-size="8.5">Live Event Entities</text>
  <text x="548" y="508" text-anchor="middle" fill="#475569" font-size="9" font-weight="600">3 Controllers</text>

  <!-- social -->
  <rect x="660" y="296" width="196" height="220" rx="10" fill="url(#moduleGrad)" stroke="#f97316" stroke-opacity="0.4" stroke-width="1.2" filter="url(#shadow)"/>
  <rect x="660" y="296" width="196" height="30" rx="10" fill="#f97316" fill-opacity="0.15"/>
  <text x="758" y="316" text-anchor="middle" fill="#fdba74" font-size="12" font-weight="700">social</text>
  <text x="678" y="342" fill="#cbd5e1" font-size="9">CommunityController</text>
  <text x="678" y="358" fill="#cbd5e1" font-size="9">ReportController</text>
  <text x="678" y="374" fill="#cbd5e1" font-size="9">NewsController</text>
  <text x="678" y="390" fill="#cbd5e1" font-size="9">MediaLink / Upload</text>
  <text x="678" y="406" fill="#94a3b8" font-size="9">게시글 · 댓글 · 신고</text>
  <text x="678" y="422" fill="#94a3b8" font-size="9">미디어 · WebP 변환</text>
  <text x="678" y="438" fill="#94a3b8" font-size="9">모더레이션 · 차단</text>
  <rect x="672" y="452" width="170" height="16" rx="4" fill="#f97316" fill-opacity="0.1"/>
  <text x="757" y="464" text-anchor="middle" fill="#fb923c" font-size="8.5">Cloudflare R2 Storage</text>
  <rect x="672" y="472" width="170" height="16" rx="4" fill="#f97316" fill-opacity="0.1"/>
  <text x="757" y="484" text-anchor="middle" fill="#fb923c" font-size="8.5">Moderation Pipeline</text>
  <text x="758" y="508" text-anchor="middle" fill="#475569" font-size="9" font-weight="600">5 Controllers</text>

  <!-- analytics -->
  <rect x="870" y="296" width="200" height="220" rx="10" fill="url(#moduleGrad)" stroke="#06b6d4" stroke-opacity="0.4" stroke-width="1.2" filter="url(#shadow)"/>
  <rect x="870" y="296" width="200" height="30" rx="10" fill="#06b6d4" fill-opacity="0.15"/>
  <text x="970" y="316" text-anchor="middle" fill="#67e8f9" font-size="12" font-weight="700">analytics</text>
  <text x="888" y="342" fill="#cbd5e1" font-size="9">RankingController</text>
  <text x="888" y="358" fill="#cbd5e1" font-size="9">AdminAnalyticsController</text>
  <text x="888" y="374" fill="#cbd5e1" font-size="9">AdminInsightsController</text>
  <text x="888" y="390" fill="#cbd5e1" font-size="9">SearchController</text>
  <text x="888" y="406" fill="#94a3b8" font-size="9">랭킹 · 인기도 · 통계</text>
  <text x="888" y="422" fill="#94a3b8" font-size="9">개인화 피드 · 추천</text>
  <text x="888" y="438" fill="#94a3b8" font-size="9">검색 인덱스</text>
  <rect x="882" y="452" width="176" height="16" rx="4" fill="#06b6d4" fill-opacity="0.1"/>
  <text x="970" y="464" text-anchor="middle" fill="#22d3ee" font-size="8.5">Event Listeners</text>
  <rect x="882" y="472" width="176" height="16" rx="4" fill="#06b6d4" fill-opacity="0.1"/>
  <text x="970" y="484" text-anchor="middle" fill="#22d3ee" font-size="8.5">Ranking Aggregation</text>
  <text x="970" y="508" text-anchor="middle" fill="#475569" font-size="9" font-weight="600">4 Controllers</text>

  <!-- Event arrows between modules -->
  <line x1="226" y1="400" x2="240" y2="400" stroke="#7c3aed" stroke-opacity="0.5" stroke-width="1" stroke-dasharray="4,2"/>
  <line x1="436" y1="400" x2="450" y2="400" stroke="#7c3aed" stroke-opacity="0.5" stroke-width="1" stroke-dasharray="4,2"/>
  <line x1="646" y1="400" x2="660" y2="400" stroke="#7c3aed" stroke-opacity="0.5" stroke-width="1" stroke-dasharray="4,2"/>
  <line x1="856" y1="400" x2="870" y2="400" stroke="#7c3aed" stroke-opacity="0.5" stroke-width="1" stroke-dasharray="4,2"/>

  <!-- ===== INFRASTRUCTURE LAYER ===== -->
  <rect x="30" y="536" width="1040" height="56" rx="10" fill="#1e293b" stroke="#334155" stroke-width="1" filter="url(#shadow)"/>
  <text x="550" y="554" text-anchor="middle" fill="#94a3b8" font-size="10" font-weight="600" letter-spacing="2">CROSS-CUTTING · INFRASTRUCTURE</text>
  <rect x="50" y="564" width="115" height="20" rx="5" fill="#a855f7" fill-opacity="0.12" stroke="#a855f7" stroke-opacity="0.3"/>
  <text x="107" y="578" text-anchor="middle" fill="#c084fc" font-size="9">Caffeine Cache</text>
  <rect x="175" y="564" width="120" height="20" rx="5" fill="#a855f7" fill-opacity="0.12" stroke="#a855f7" stroke-opacity="0.3"/>
  <text x="235" y="578" text-anchor="middle" fill="#c084fc" font-size="9">Spring Mail</text>
  <rect x="305" y="564" width="115" height="20" rx="5" fill="#a855f7" fill-opacity="0.12" stroke="#a855f7" stroke-opacity="0.3"/>
  <text x="362" y="578" text-anchor="middle" fill="#c084fc" font-size="9">Scheduler</text>
  <rect x="430" y="564" width="130" height="20" rx="5" fill="#a855f7" fill-opacity="0.12" stroke="#a855f7" stroke-opacity="0.3"/>
  <text x="495" y="578" text-anchor="middle" fill="#c084fc" font-size="9">AuditLogger</text>
  <rect x="570" y="564" width="120" height="20" rx="5" fill="#a855f7" fill-opacity="0.12" stroke="#a855f7" stroke-opacity="0.3"/>
  <text x="630" y="578" text-anchor="middle" fill="#c084fc" font-size="9">Feature Flags</text>
  <rect x="700" y="564" width="145" height="20" rx="5" fill="#a855f7" fill-opacity="0.12" stroke="#a855f7" stroke-opacity="0.3"/>
  <text x="772" y="578" text-anchor="middle" fill="#c084fc" font-size="9">Bean Validation</text>
  <rect x="855" y="564" width="195" height="20" rx="5" fill="#a855f7" fill-opacity="0.12" stroke="#a855f7" stroke-opacity="0.3"/>
  <text x="952" y="578" text-anchor="middle" fill="#c084fc" font-size="9">Detekt · Ktlint · Kover</text>

  <!-- ===== DATA LAYER ===== -->
  <rect x="30" y="610" width="1040" height="80" rx="10" fill="#1e293b" stroke="#334155" stroke-width="1" filter="url(#shadow)"/>
  <text x="550" y="630" text-anchor="middle" fill="#94a3b8" font-size="10" font-weight="600" letter-spacing="2">DATA LAYER</text>

  <rect x="50" y="642" width="200" height="38" rx="8" fill="#3b82f6" fill-opacity="0.1" stroke="#3b82f6" stroke-opacity="0.3"/>
  <text x="150" y="658" text-anchor="middle" fill="#93c5fd" font-size="11" font-weight="600">PostgreSQL</text>
  <text x="150" y="672" text-anchor="middle" fill="#64748b" font-size="8.5">Hibernate Spatial · Flyway</text>

  <rect x="270" y="642" width="170" height="38" rx="8" fill="#ef4444" fill-opacity="0.1" stroke="#ef4444" stroke-opacity="0.3"/>
  <text x="355" y="658" text-anchor="middle" fill="#fca5a5" font-size="11" font-weight="600">Redis</text>
  <text x="355" y="672" text-anchor="middle" fill="#64748b" font-size="8.5">Cache · Rate Limit · Token</text>

  <rect x="460" y="642" width="170" height="38" rx="8" fill="#f97316" fill-opacity="0.1" stroke="#f97316" stroke-opacity="0.3"/>
  <text x="545" y="658" text-anchor="middle" fill="#fdba74" font-size="11" font-weight="600">Cloudflare R2</text>
  <text x="545" y="672" text-anchor="middle" fill="#64748b" font-size="8.5">Media · WebP · Cost Guard</text>

  <rect x="650" y="642" width="170" height="38" rx="8" fill="#22c55e" fill-opacity="0.1" stroke="#22c55e" stroke-opacity="0.3"/>
  <text x="735" y="658" text-anchor="middle" fill="#86efac" font-size="11" font-weight="600">Testcontainers</text>
  <text x="735" y="672" text-anchor="middle" fill="#64748b" font-size="8.5">PostgreSQL Integration</text>

  <rect x="840" y="642" width="210" height="38" rx="8" fill="#eab308" fill-opacity="0.1" stroke="#eab308" stroke-opacity="0.3"/>
  <text x="945" y="658" text-anchor="middle" fill="#fde047" font-size="11" font-weight="600">Prometheus</text>
  <text x="945" y="672" text-anchor="middle" fill="#64748b" font-size="8.5">Metrics · Health · Actuator</text>

  <!-- ===== STATS BAR ===== -->
  <rect x="30" y="710" width="1040" height="50" rx="10" fill="#020617" stroke="#1e293b" stroke-width="1"/>
  <text x="130" y="732" text-anchor="middle" fill="#0ea5e9" font-size="22" font-weight="800">259</text>
  <text x="130" y="748" text-anchor="middle" fill="#64748b" font-size="9">API Endpoints</text>
  <text x="310" y="732" text-anchor="middle" fill="#22c55e" font-size="22" font-weight="800">48</text>
  <text x="310" y="748" text-anchor="middle" fill="#64748b" font-size="9">Controllers</text>
  <text x="490" y="732" text-anchor="middle" fill="#a855f7" font-size="22" font-weight="800">5</text>
  <text x="490" y="748" text-anchor="middle" fill="#64748b" font-size="9">Domain Modules</text>
  <text x="670" y="732" text-anchor="middle" fill="#eab308" font-size="22" font-weight="800">Java 21</text>
  <text x="670" y="748" text-anchor="middle" fill="#64748b" font-size="9">Runtime</text>
  <text x="850" y="732" text-anchor="middle" fill="#ef4444" font-size="22" font-weight="800">OAuth2</text>
  <text x="850" y="748" text-anchor="middle" fill="#64748b" font-size="9">Google · Apple</text>
  <text x="1010" y="732" text-anchor="middle" fill="#06b6d4" font-size="22" font-weight="800">Modulith</text>
  <text x="1010" y="748" text-anchor="middle" fill="#64748b" font-size="9">Event-Driven</text>
</svg>