<?xml version="1.0" encoding="UTF-8"?>
<svg width="960" height="520" viewBox="0 0 960 520" xmlns="http://www.w3.org/2000/svg">
  <rect width="960" height="520" rx="24" fill="#ffffff" stroke="#e5e7eb"/>

  <!-- Browser Extension Cluster -->
  <rect x="24" y="60" width="200" height="360" rx="12" ry="12" fill="#f8fafc" stroke="#9da3af" stroke-width="2"/>
  <text x="124" y="86" text-anchor="middle" font-family="'Inter','Apple SD Gothic Neo',sans-serif" font-size="16" fill="#1f2937">브라우저 확장</text>
  <rect x="44" y="110" width="160" height="60" rx="10" ry="10" fill="#eef2ff" stroke="#4f46e5"/>
  <text x="124" y="142" text-anchor="middle" font-family="'Inter','Apple SD Gothic Neo',sans-serif" font-size="13" fill="#1f2937">Manifest V3 UI</text>
  <rect x="44" y="190" width="160" height="60" rx="10" ry="10" fill="#eef2ff" stroke="#4f46e5"/>
  <text x="124" y="222" text-anchor="middle" font-family="'Inter','Apple SD Gothic Neo',sans-serif" font-size="13" fill="#1f2937">검색 결과 파싱</text>
  <rect x="44" y="270" width="160" height="60" rx="10" ry="10" fill="#eef2ff" stroke="#4f46e5"/>
  <text x="124" y="302" text-anchor="middle" font-family="'Inter','Apple SD Gothic Neo',sans-serif" font-size="13" fill="#1f2937">사용자 피드백 수집</text>

  <!-- Cloudflare Cluster -->
  <rect x="244" y="120" width="210" height="240" rx="12" ry="12" fill="#fff7ed" stroke="#fb923c" stroke-width="2" stroke-dasharray="6 4"/>
  <text x="349" y="148" text-anchor="middle" font-family="'Inter','Apple SD Gothic Neo',sans-serif" font-size="16" fill="#c2410c">Cloudflare Edge</text>
  <rect x="264" y="170" width="170" height="60" rx="10" ry="10" fill="#fff7ed" stroke="#fb923c"/>
  <text x="349" y="202" text-anchor="middle" font-family="'Inter','Apple SD Gothic Neo',sans-serif" font-size="13" fill="#7c2d12">DNS / Proxy 라우팅</text>
  <rect x="264" y="250" width="170" height="60" rx="10" ry="10" fill="#fff7ed" stroke="#fb923c"/>
  <text x="349" y="282" text-anchor="middle" font-family="'Inter','Apple SD Gothic Neo',sans-serif" font-size="13" fill="#7c2d12">Workers (요청 중계)</text>

  <!-- Azure Functions Cluster -->
  <rect x="484" y="40" width="230" height="420" rx="12" ry="12" fill="#ecfdf5" stroke="#34d399" stroke-width="2"/>
  <text x="599" y="68" text-anchor="middle" font-family="'Inter','Apple SD Gothic Neo',sans-serif" font-size="16" fill="#047857">Azure Functions + Spring</text>
  <rect x="504" y="92" width="190" height="60" rx="10" ry="10" fill="#ffffff" stroke="#34d399"/>
  <text x="599" y="118" text-anchor="middle" font-family="'Inter','Apple SD Gothic Neo',sans-serif" font-size="13" fill="#065f46">REST Filter API</text>
  <rect x="504" y="172" width="190" height="60" rx="10" ry="10" fill="#ffffff" stroke="#34d399"/>
  <text x="599" y="198" text-anchor="middle" font-family="'Inter','Apple SD Gothic Neo',sans-serif" font-size="13" fill="#065f46">도메인 점수 계산</text>
  <rect x="504" y="252" width="190" height="60" rx="10" ry="10" fill="#ffffff" stroke="#34d399"/>
  <text x="599" y="278" text-anchor="middle" font-family="'Inter','Apple SD Gothic Neo',sans-serif" font-size="13" fill="#065f46">피드백 처리</text>
  <rect x="504" y="332" width="190" height="60" rx="10" ry="10" fill="#ffffff" stroke="#34d399"/>
  <text x="599" y="358" text-anchor="middle" font-family="'Inter','Apple SD Gothic Neo',sans-serif" font-size="13" fill="#065f46">sLM 요청 오케스트레이션</text>

  <!-- sLM Server Cluster -->
  <rect x="484" y="424" width="230" height="60" rx="12" ry="12" fill="#e0f2fe" stroke="#38bdf8" stroke-width="2"/>
  <text x="599" y="460" text-anchor="middle" font-family="'Inter','Apple SD Gothic Neo',sans-serif" font-size="14" fill="#0f172a">Azure Computing · sLM 서버 (Gemma 2:2b)</text>

  <!-- Data Stores Cluster -->
  <rect x="744" y="120" width="192" height="280" rx="12" ry="12" fill="#eef2ff" stroke="#6366f1" stroke-width="2"/>
  <text x="840" y="148" text-anchor="middle" font-family="'Inter','Apple SD Gothic Neo',sans-serif" font-size="16" fill="#312e81">데이터 스토어</text>
  <rect x="764" y="170" width="152" height="60" rx="10" ry="10" fill="#ffffff" stroke="#6366f1"/>
  <text x="840" y="196" text-anchor="middle" font-family="'Inter','Apple SD Gothic Neo',sans-serif" font-size="13" fill="#1f2937">Azure SQL<br/>도메인·로그</text>
  <rect x="764" y="250" width="152" height="60" rx="10" ry="10" fill="#ffffff" stroke="#6366f1"/>
  <text x="840" y="276" text-anchor="middle" font-family="'Inter','Apple SD Gothic Neo',sans-serif" font-size="13" fill="#1f2937">Firebase Firestore<br/>사용자 피드백</text>
  <rect x="764" y="330" width="152" height="60" rx="10" ry="10" fill="#ffffff" stroke="#6366f1"/>
  <text x="840" y="356" text-anchor="middle" font-family="'Inter','Apple SD Gothic Neo',sans-serif" font-size="13" fill="#1f2937">CI/CD · 배포 파이프라인</text>

  <!-- Arrows -->
  <defs>
    <marker id="arrow" markerWidth="10" markerHeight="10" refX="9" refY="5" orient="auto" markerUnits="strokeWidth">
      <path d="M0 0 L10 5 L0 10 Z" fill="#1f2937"/>
    </marker>
    <marker id="arrowBlue" markerWidth="10" markerHeight="10" refX="9" refY="5" orient="auto" markerUnits="strokeWidth">
      <path d="M0 0 L10 5 L0 10 Z" fill="#0f172a"/>
    </marker>
  </defs>
  <line x1="224" y1="200" x2="244" y2="200" stroke="#1f2937" stroke-width="2" marker-end="url(#arrow)"/>
  <line x1="454" y1="200" x2="484" y2="200" stroke="#1f2937" stroke-width="2" marker-end="url(#arrow)"/>
  <line x1="714" y1="210" x2="744" y2="210" stroke="#1f2937" stroke-width="2" marker-end="url(#arrow)"/>
  <line x1="714" y1="290" x2="744" y2="290" stroke="#1f2937" stroke-width="2" marker-end="url(#arrow)"/>
  <line x1="714" y1="370" x2="744" y2="370" stroke="#1f2937" stroke-width="2" marker-end="url(#arrow)"/>
  <line x1="599" y1="392" x2="599" y2="424" stroke="#0f172a" stroke-width="2" marker-end="url(#arrowBlue)"/>
</svg>
