<svg width="1200" height="600" viewBox="0 0 1200 600" fill="none" xmlns="http://www.w3.org/2000/svg">
  <rect width="1200" height="600" rx="48" fill="url(#paint0_linear)"/>
  <g filter="url(#filter0_f)">
    <ellipse cx="310" cy="420" rx="210" ry="190" fill="url(#paint1_radial)"/>
  </g>
  <g filter="url(#filter1_f)">
    <ellipse cx="920" cy="180" rx="220" ry="200" fill="url(#paint2_radial)"/>
  </g>
  <path d="M200 380C280 320 360 320 440 360C520 400 600 400 680 360C760 320 840 320 920 360C1000 400 1080 400 1160 360" stroke="rgba(255,255,255,0.4)" stroke-width="5" stroke-linecap="round"/>
  <g filter="url(#filter2_d)">
    <rect x="220" y="160" width="340" height="140" rx="26" fill="rgba(20, 25, 64, 0.55)"/>
    <text x="260" y="215" fill="white" font-size="38" font-family="'Pretendard', 'Noto Sans KR', sans-serif" font-weight="600">성지순례 아카이빙 플랫폼</text>
    <text x="260" y="258" fill="rgba(255,255,255,0.85)" font-size="24" font-family="'Pretendard', 'Noto Sans KR', sans-serif">Toge Info</text>
  </g>
  <g filter="url(#filter3_d)">
    <rect x="680" y="330" width="320" height="130" rx="26" fill="rgba(20, 25, 64, 0.55)"/>
    <text x="720" y="386" fill="white" font-size="32" font-family="'Pretendard', 'Noto Sans KR', sans-serif" font-weight="500">PostGIS 기반 장소 검색</text>
    <text x="720" y="428" fill="rgba(255,255,255,0.85)" font-size="22" font-family="'Pretendard', 'Noto Sans KR', sans-serif">캐시 최적화로 40% 속도 개선</text>
  </g>
  <defs>
    <filter id="filter0_f" x="-30" y="120" width="680" height="600" filterUnits="userSpaceOnUse" color-interpolation-filters="sRGB">
      <feGaussianBlur stdDeviation="110"/>
    </filter>
    <filter id="filter1_f" x="600" y="-120" width="640" height="600" filterUnits="userSpaceOnUse" color-interpolation-filters="sRGB">
      <feGaussianBlur stdDeviation="120"/>
    </filter>
    <filter id="filter2_d" x="200" y="144" width="380" height="180" filterUnits="userSpaceOnUse" color-interpolation-filters="sRGB">
      <feGaussianBlur stdDeviation="10"/>
    </filter>
    <filter id="filter3_d" x="660" y="314" width="360" height="170" filterUnits="userSpaceOnUse" color-interpolation-filters="sRGB">
      <feGaussianBlur stdDeviation="10"/>
    </filter>
    <linearGradient id="paint0_linear" x1="160" y1="96" x2="1040" y2="536" gradientUnits="userSpaceOnUse">
      <stop stop-color="#F88489"/>
      <stop offset="1" stop-color="#5F5BFF"/>
    </linearGradient>
    <radialGradient id="paint1_radial" cx="0" cy="0" r="1" gradientUnits="userSpaceOnUse" gradientTransform="translate(310 420) rotate(90) scale(210 230)">
      <stop stop-color="#FFE3A8" stop-opacity="0.9"/>
      <stop offset="1" stop-color="#FFE3A8" stop-opacity="0"/>
    </radialGradient>
    <radialGradient id="paint2_radial" cx="0" cy="0" r="1" gradientUnits="userSpaceOnUse" gradientTransform="translate(920 180) rotate(90) scale(200 220)">
      <stop stop-color="#88A7FF" stop-opacity="0.9"/>
      <stop offset="1" stop-color="#88A7FF" stop-opacity="0"/>
    </radialGradient>
  </defs>
</svg>
