<svg width="1200" height="600" viewBox="0 0 1200 600" fill="none" xmlns="http://www.w3.org/2000/svg">
  <rect width="1200" height="600" rx="48" fill="url(#paint0_linear)"/>
  <g filter="url(#filter0_f)">
    <circle cx="280" cy="200" r="200" fill="url(#paint1_radial)"/>
  </g>
  <g filter="url(#filter1_f)">
    <circle cx="980" cy="420" r="220" fill="url(#paint2_radial)"/>
  </g>
  <path d="M220 380C320 300 420 300 520 360C620 420 720 420 820 360C920 300 1020 300 1120 360" stroke="rgba(255,255,255,0.45)" stroke-width="5" stroke-linecap="round" stroke-dasharray="16 18"/>
  <g filter="url(#filter2_d)">
    <rect x="240" y="260" width="320" height="130" rx="24" fill="rgba(22, 28, 54, 0.55)"/>
    <text x="280" y="308" fill="white" font-size="36" font-family="'Pretendard','Noto Sans KR',sans-serif" font-weight="600">Study Radar</text>
    <text x="280" y="348" fill="rgba(255,255,255,0.85)" font-size="22" font-family="'Pretendard','Noto Sans KR',sans-serif">Discord 스터디 일정 관리 봇</text>
  </g>
  <g filter="url(#filter3_d)">
    <rect x="680" y="340" width="320" height="120" rx="24" fill="rgba(22, 28, 54, 0.55)"/>
    <text x="720" y="386" fill="white" font-size="30" font-family="'Pretendard','Noto Sans KR',sans-serif" font-weight="500">자연어 일정 파싱</text>
    <text x="720" y="424" fill="rgba(255,255,255,0.85)" font-size="22" font-family="'Pretendard','Noto Sans KR',sans-serif">RRule 반복 일정 지원</text>
  </g>
  <defs>
    <filter id="filter0_f" x="-80" y="-120" width="720" height="640" filterUnits="userSpaceOnUse" color-interpolation-filters="sRGB">
      <feGaussianBlur stdDeviation="120"/>
    </filter>
    <filter id="filter1_f" x="640" y="80" width="680" height="680" filterUnits="userSpaceOnUse" color-interpolation-filters="sRGB">
      <feGaussianBlur stdDeviation="120"/>
    </filter>
    <filter id="filter2_d" x="220" y="244" width="360" height="170" filterUnits="userSpaceOnUse" color-interpolation-filters="sRGB">
      <feGaussianBlur stdDeviation="10"/>
    </filter>
    <filter id="filter3_d" x="660" y="324" width="360" height="160" filterUnits="userSpaceOnUse" color-interpolation-filters="sRGB">
      <feGaussianBlur stdDeviation="10"/>
    </filter>
    <linearGradient id="paint0_linear" x1="140" y1="96" x2="1080" y2="520" gradientUnits="userSpaceOnUse">
      <stop stop-color="#5EE7DF"/>
      <stop offset="1" stop-color="#B490CA"/>
    </linearGradient>
    <radialGradient id="paint1_radial" cx="0" cy="0" r="1" gradientUnits="userSpaceOnUse" gradientTransform="translate(280 200) rotate(90) scale(220)">
      <stop stop-color="#9BF6FF" stop-opacity="0.9"/>
      <stop offset="1" stop-color="#9BF6FF" stop-opacity="0"/>
    </radialGradient>
    <radialGradient id="paint2_radial" cx="0" cy="0" r="1" gradientUnits="userSpaceOnUse" gradientTransform="translate(980 420) rotate(90) scale(240)">
      <stop stop-color="#F9D6FF" stop-opacity="0.9"/>
      <stop offset="1" stop-color="#F9D6FF" stop-opacity="0"/>
    </radialGradient>
  </defs>
</svg>
